<!DOCTYPE svg PUBLIC "-//W3C//DTD SVG 1.1//EN" "http://www.w3.org/Graphics/SVG/1.1/DTD/svg11.dtd">
<!-- Uploaded to: SVG Repo, www.svgrepo.com, Transformed by: SVG Repo Mixer Tools -->
<svg fill="#6374ae" version="1.1" id="Capa_1" xmlns="http://www.w3.org/2000/svg" xmlns:xlink="http://www.w3.org/1999/xlink" width="800px" height="800px" viewBox="0 0 169.775 169.775" xml:space="preserve">
<g id="SVGRepo_bgCarrier" stroke-width="0"/>
<g id="SVGRepo_tracerCarrier" stroke-linecap="round" stroke-linejoin="round"/>
<g id="SVGRepo_iconCarrier"> <g> <path d="M167.612,104.116c-0.433,1.291-3.38,7.989-19.722,18.396c-1.672,1.057-4.913,3.677-6.008,5.231 c-0.432,0.602-0.799,1.247-1.169,1.904c-1.238,2.211-2.765,4.936-7.83,8.175c-0.351,0.767-1.283,2.386-2.825,2.946 c-0.794,0.271-1.597,0.249-2.414-0.111c-1.166,0.241-3.576,0.514-4.786-0.69c-1.025-0.252-3.449-1.104-4.16-3.457 c-0.351-0.121-0.766-0.351-1.116-0.745c-0.668-0.7-0.975-1.713-0.892-2.966c0.136-0.558,2.368-7.529,8.169-10.002 c0.115-0.056,0.227-0.077,0.353-0.099l3.796-0.35c3.009-2.65,7.737-6.885,8.372-7.793c0.743-1.051,1.317-2.446,1.991-4.038 c0.987-2.32,2.142-5.057,4.242-7.717c-5.626,0.443-17.626,0.778-24.308-4.229c-0.027,3.972-1.186,11.529-7.656,21.953 c0.033,0-3.961,11.924-2.172,26.884l-2.271,0.274c-1.861-15.562,2.216-27.617,2.396-28.132c9.217-14.879,7.233-23.503,7.214-23.596 c-0.131-0.53,0.121-1.056,0.594-1.296c0.484-0.252,1.054-0.115,1.396,0.306c6.569,8.208,27.313,5.261,27.52,5.242 c0.467-0.075,0.979,0.187,1.195,0.635c0.211,0.438,0.112,0.975-0.238,1.326c-3.16,2.975-4.562,6.303-5.805,9.229 c-0.695,1.642-1.357,3.19-2.239,4.48c-1.006,1.413-7.682,7.268-8.999,8.428c-0.182,0.148-0.41,0.252-0.647,0.273l-3.983,0.378 c-4.739,2.129-6.663,8.187-6.677,8.257c0.014,0.317,0.121,0.766,0.323,0.998c0.172,0.173,0.424,0.206,0.424,0.206 c0.583,0,1.07,0.438,1.136,1.018c0.219,1.948,2.834,2.364,2.861,2.364c0.335,0.065,0.619,0.251,0.811,0.536 c0.216,0.274,1.674,0.35,3.087,0.022c0.272-0.045,0.57-0.022,0.822,0.12c0.458,0.253,0.726,0.207,0.929,0.132 c0.795-0.285,1.449-1.555,1.621-1.987c0.093-0.229,0.252-0.421,0.447-0.562c4.828-3.021,6.188-5.429,7.364-7.541 c0.411-0.745,0.812-1.456,1.298-2.134c1.293-1.807,4.738-4.607,6.639-5.812c16.852-10.736,18.789-17.177,18.789-17.237 c0.038-0.119,0.088-0.24,0.149-0.339c1.995-3.119,2.4-5.953,1.214-8.668c-4.553-10.495-30.479-15.281-30.736-15.319 c-0.263-0.058-0.491-0.181-0.663-0.373c-6.55-7.523-13.455-7.198-18.561-7.025c-10.413,0.572-20.366-5.021-21.394-6.005 c-0.149-0.14-0.298-0.364-0.358-0.595h-0.01c-0.075-0.262-0.711-2.769,0.055-9.078c0.049-0.331,0.207-0.599,0.477-0.791 c0.048-0.044,1.55-1.251,1.756-4.797c0.022-0.459,0.317-0.845,0.757-1.007c0.321-0.12,0.644-0.073,0.919,0.066 c0.206-0.246,0.627-0.925,1.104-2.667c0.045-0.128,0.099-0.263,0.172-0.364c0.989-1.368,1.863-3.343,1.563-3.934 c-0.065-0.118-0.383-0.241-0.975-0.241c-0.328,0-0.622-0.139-0.846-0.381c-0.216-0.24-0.325-0.57-0.29-0.883 c0.085-0.618,1.564-15.193-13.194-17.91c-1.046-0.213-2.507-0.213-3.525,0c-14.802,2.717-13.286,17.292-13.209,17.91 c0.045,0.323-0.065,0.643-0.285,0.883c-0.208,0.242-0.525,0.381-0.853,0.381c-0.614,0-0.908,0.118-0.964,0.246 c-0.306,0.586,0.581,2.561,1.55,3.929c0.082,0.117,0.131,0.235,0.168,0.364c0.472,1.743,0.892,2.421,1.1,2.667 c0.273-0.134,0.602-0.178,0.92-0.066c0.427,0.145,0.733,0.548,0.754,1.007c0.219,3.565,1.741,4.769,1.795,4.797 c0.241,0.196,0.422,0.481,0.46,0.796c0.745,6.304,0.115,8.804,0.044,9.062h-0.012c-0.07,0.234-0.208,0.464-0.35,0.604 c-0.995,0.941-10.156,6.04-20.192,6.04c-0.404,0-0.815-0.014-1.23-0.035c-5.012-0.172-11.983-0.498-18.562,7.025 c-0.142,0.17-0.343,0.299-0.568,0.351c-0.274,0.077-27.755,7.658-31.087,17.731c-0.69,2.086-0.23,4.11,1.417,6.189 c0.099,0.121,0.17,0.273,0.208,0.438c0.012,0.043,1.948,6.478,18.796,17.215c1.873,1.215,5.32,3.975,6.644,5.833 c0.481,0.667,0.87,1.368,1.28,2.101c1.193,2.124,2.54,4.542,7.377,7.563c0.207,0.119,0.355,0.327,0.453,0.557 c0.159,0.43,0.816,1.708,1.609,1.98c0.186,0.083,0.466,0.121,0.926-0.125c0.245-0.137,0.558-0.159,0.814-0.114 c1.39,0.317,2.867,0.252,3.097-0.022c0.177-0.29,0.471-0.471,0.8-0.542c0.026,0,2.654-0.448,2.872-2.363 c0.082-0.586,0.565-1.023,1.139-1.023c0.273-0.012,0.766-0.23,0.701-1.466c-0.04,0-2.003-5.91-6.654-7.988l-3.973-0.374 c-0.236-0.032-0.465-0.12-0.64-0.284c-1.331-1.161-8.012-7.004-9.002-8.417c-0.896-1.29-1.56-2.845-2.255-4.486 c-1.247-2.934-2.647-6.249-5.799-9.236c-0.35-0.339-0.455-0.859-0.247-1.298c0.191-0.448,0.679-0.667,1.144-0.667 c6.386,0.712,23.717,1.09,27.492-5.1c0.296-0.492,0.896-0.673,1.422-0.465c0.52,0.225,0.81,0.799,0.658,1.341 c-0.023,0.081-1.986,8.705,7.113,23.365c0.29,0.738,4.366,12.783,2.484,28.351l-2.255-0.262c1.795-15.066-2.238-26.99-2.276-27.113 c-6.298-10.104-7.496-17.523-7.557-21.529c-6.09,4.422-18.676,4.264-24.394,3.918c2.146,2.688,3.327,5.478,4.317,7.82 c0.679,1.592,1.27,2.971,2.026,4.049c0.619,0.887,5.34,5.145,8.356,7.792l3.791,0.351c0.122,0.011,0.229,0.032,0.346,0.088 c5.822,2.473,8.043,9.455,8.136,9.74c0.122,1.531-0.175,2.527-0.843,3.25c-0.354,0.366-0.766,0.597-1.111,0.733 c-0.721,2.353-3.145,3.194-4.169,3.446c-1.226,1.204-3.628,0.932-4.798,0.701c-0.815,0.339-1.62,0.377-2.425,0.101 c-1.52-0.561-2.445-2.19-2.79-2.936c-5.078-3.25-6.621-5.975-7.847-8.186c-0.366-0.657-0.723-1.289-1.16-1.904 c-1.079-1.51-4.328-4.147-6.014-5.221C5.663,112.236,2.582,105.593,2.084,104.188c-2.015-2.644-2.573-5.39-1.658-8.158 c3.535-10.707,28.941-18.176,32.322-19.122c7.246-8.083,15.026-7.758,20.147-7.55c9.127,0.327,17.866-4.058,19.547-5.239 c0.114-0.75,0.371-3.037-0.122-7.47c-0.624-0.631-1.755-2.118-2.178-4.908c-1.182-0.295-2.058-1.625-2.779-4.192 c-0.667-0.968-2.654-4.106-1.62-6.134c0.269-0.517,0.794-1.094,1.805-1.352c-0.082-3.913,0.777-16.646,15.114-19.286 c0.198-0.035,1.281-0.24,2.189-0.24s1.991,0.205,2.211,0.24c14.315,2.651,15.179,15.374,15.102,19.286 c1.03,0.252,1.534,0.834,1.795,1.352c1.039,2.011-0.952,5.166-1.619,6.134c-0.723,2.556-1.609,3.896-2.778,4.192 c-0.401,2.791-1.526,4.277-2.167,4.908c-0.517,4.421-0.252,6.714-0.134,7.47c1.609,1.132,9.841,5.255,18.43,5.255 c0.372,0,0.75-0.011,1.105-0.021c5.177-0.208,12.905-0.545,20.104,7.497c3.502,0.667,27.272,5.62,32.044,16.59 C170.386,96.828,169.956,100.423,167.612,104.116z M117.895,88.915c0-0.623-0.517-1.138-1.144-1.138 c-0.626,0-1.14,0.515-1.14,1.138c0,8.109-5.864,14.697-13.078,14.697c-7.213,0-13.066-6.588-13.066-14.697v-8.184 c0-0.627-0.516-1.141-1.15-1.141c-0.624,0-1.137,0.514-1.137,1.141v8.184c0,9.379,6.888,16.996,15.354,16.996 C110.999,105.911,117.895,98.294,117.895,88.915z M54.353,88.915c0-0.623-0.514-1.138-1.139-1.138 c-0.628,0-1.144,0.515-1.144,1.138c0,9.379,6.884,16.996,15.345,16.996c8.481,0,15.371-7.617,15.371-16.996v-8.184 c0-0.627-0.516-1.141-1.15-1.141c-0.624,0-1.142,0.514-1.142,1.141v8.184c0,8.109-5.867,14.697-13.078,14.697 C60.218,103.612,54.353,97.024,54.353,88.915z M104.64,97.375c1.274,0,2.32-0.942,2.32-2.102c0-1.171-1.057-2.111-2.32-2.111 c-1.286,0-2.308,0.94-2.308,2.111C102.333,96.433,103.36,97.375,104.64,97.375z M67.618,95.273c0-1.171-1.041-2.111-2.316-2.111 c-1.27,0-2.287,0.94-2.287,2.111c0,1.159,1.018,2.102,2.287,2.102C66.577,97.375,67.618,96.433,67.618,95.273z M84.953,108.045 c-8.608,0-15.624,7.59-15.624,16.941v20.274c0,0.628,0.516,1.148,1.149,1.148c0.619,0,1.139-0.521,1.139-1.148v-20.274 c0-8.076,5.969-14.654,13.335-14.654c7.36,0,13.328,6.578,13.328,14.654v21.056c0,0.619,0.522,1.139,1.145,1.139 c0.629,0,1.144-0.52,1.144-1.139v-21.056C100.569,115.635,93.554,108.045,84.953,108.045z M89.664,123.952c0.011,0,0.016,0,0.016,0 c3.125,0,5.319-2.369,5.412-2.468c0.426-0.471,0.389-1.183-0.071-1.609c-0.476-0.438-1.198-0.393-1.614,0.066 c-0.015,0.021-1.63,1.745-3.721,1.745h-0.026c-1.226-0.01-2.425-0.662-3.569-1.861v-3.441c0-0.635-0.514-1.148-1.137-1.148 c-0.63,0-1.145,0.514-1.145,1.148v3.432c-1.148,1.209-2.341,1.861-3.567,1.871c-0.017,0-0.021,0-0.04,0 c-2.09,0-3.699-1.724-3.714-1.745c-0.428-0.459-1.139-0.481-1.614-0.066c-0.46,0.427-0.494,1.139-0.077,1.609 c0.098,0.109,2.297,2.473,5.405,2.473c0.011,0,0.023,0,0.033,0c1.26-0.011,2.436-0.524,3.573-1.28v4.281 c-1.148,1.201-2.341,1.858-3.573,1.881c-0.01,0-0.022,0-0.033,0c-2.09,0-3.699-1.718-3.714-1.74 c-0.428-0.471-1.145-0.52-1.614-0.071c-0.46,0.411-0.499,1.14-0.077,1.598c0.098,0.115,2.286,2.479,5.405,2.479 c0.011,0,0.018,0,0.018,0c1.268,0,2.451-0.515,3.588-1.28v5.241c-1.148,1.204-2.341,1.861-3.567,1.871c-0.017,0-0.021,0-0.028,0 c-2.089,0-3.705-1.729-3.726-1.751c-0.428-0.459-1.155-0.503-1.609-0.065c-0.465,0.416-0.504,1.139-0.082,1.598 c0.098,0.11,2.286,2.496,5.405,2.496c0.018,0,0.023,0,0.033,0c1.26-0.017,2.436-0.531,3.573-1.281v1.828 c0,0.635,0.514,1.149,1.145,1.149c0.623,0,1.137-0.515,1.137-1.149v-1.828c1.138,0.755,2.315,1.27,3.574,1.281 c0.011,0,0.021,0,0.021,0c3.119,0,5.313-2.39,5.406-2.496c0.426-0.459,0.389-1.182-0.083-1.607 c-0.459-0.416-1.202-0.384-1.613,0.086c-0.012,0.012-1.625,1.74-3.71,1.74c0,0,0,0-0.011,0c-1.22,0-2.429-0.667-3.584-1.859v-5.253 c1.138,0.766,2.32,1.28,3.584,1.28c0.011,0,0.011,0,0.011,0c3.119,0,5.313-2.376,5.406-2.479c0.426-0.471,0.389-1.187-0.083-1.609 c-0.459-0.415-1.182-0.388-1.613,0.083c-0.012,0.022-1.625,1.74-3.71,1.74l0,0c-1.23-0.012-2.44-0.667-3.595-1.861v-4.29 C87.228,123.433,88.405,123.946,89.664,123.952z M84.957,144.894c-1.094,0-1.992,0.975-1.992,2.166 c0,1.215,0.897,2.179,1.992,2.179c1.079,0,1.97-0.964,1.97-2.179C86.922,145.868,86.036,144.894,84.957,144.894z M146.583,95.722 c0.22,0.274,0.561,0.405,0.878,0.405c0.256,0,0.513-0.088,0.728-0.264c0.481-0.398,0.551-1.126,0.141-1.607 c-6.854-8.266-19.391-7.779-19.956-7.708c-0.625,0.028-1.116,0.572-1.073,1.193c0.022,0.637,0.58,1.174,1.195,1.076 C128.531,88.827,140.457,88.319,146.583,95.722z M41.938,87.558c0.021-0.621-0.472-1.16-1.095-1.181 c-0.525,0-13.127-0.338-19.814,8.053c-0.39,0.504-0.317,1.216,0.181,1.609c0.207,0.17,0.453,0.252,0.711,0.252 c0.339,0,0.661-0.143,0.885-0.428c5.521-6.916,16.088-7.211,17.74-7.211c0.367,0,0.224,0.011,0.252,0.011 C41.417,88.663,41.92,88.171,41.938,87.558z"/> </g> </g>
</svg>