<?xml version="1.0" encoding="iso-8859-1"?>
<!-- Uploaded to: SVG Repo, www.svgrepo.com, Generator: SVG Repo Mixer Tools -->
<!DOCTYPE svg PUBLIC "-//W3C//DTD SVG 1.1//EN" "http://www.w3.org/Graphics/SVG/1.1/DTD/svg11.dtd">
<svg fill="#ff9500" height="800px" width="800px" version="1.1" id="Capa_1" xmlns="http://www.w3.org/2000/svg" xmlns:xlink="http://www.w3.org/1999/xlink" 
	 viewBox="0 0 420 420" xml:space="preserve">
<path d="M9.393,333.441l19.874,19.874L8.403,374.178c-3.63,3.63-3.63,9.517,0,13.146l24.27,24.271
	c1.744,1.744,4.108,2.724,6.574,2.724c2.466,0,4.83-0.98,6.574-2.724l20.864-20.864l19.876,19.876
	c12.525,12.525,32.829,12.523,45.35,0c8.103-8.102,10.955-19.46,8.571-29.862l9.619,9.619c19.554,19.553,51.24,19.549,70.787,0
	c19.55-19.548,19.555-51.236,0.003-70.786l-41.526-41.526l98.688-98.687l41.525,41.524c19.551,19.553,51.24,19.547,70.791-0.004
	c19.545-19.544,19.55-51.234-0.001-70.783l-9.621-9.621c10.402,2.384,21.76-0.469,29.862-8.571c12.521-12.52,12.526-32.823,0-45.352
	l-19.876-19.875l20.863-20.863c3.63-3.63,3.63-9.517,0-13.146L387.327,8.404c-3.631-3.631-9.517-3.631-13.147,0l-20.863,20.863
	L333.44,9.392c-12.524-12.522-32.83-12.52-45.35,0c-8.103,8.102-10.956,19.459-8.572,29.862l-9.617-9.617
	c-19.545-19.547-51.244-19.551-70.79-0.007c-19.549,19.551-19.545,51.249,0,70.793l41.524,41.524l-98.688,98.688l-41.522-41.523
	c-19.545-19.547-51.243-19.551-70.794,0c-19.546,19.545-19.541,51.244,0.005,70.787l9.621,9.621
	c-10.402-2.384-21.761,0.468-29.864,8.569C-3.13,300.611-3.132,320.915,9.393,333.441z"/>
</svg>