<?xml version="1.0" encoding="iso-8859-1"?>
<!-- Uploaded to: SVG Repo, www.svgrepo.com, Generator: SVG Repo Mixer Tools -->
<!DOCTYPE svg PUBLIC "-//W3C//DTD SVG 1.1//EN" "http://www.w3.org/Graphics/SVG/1.1/DTD/svg11.dtd">
<svg fill="#3a01d6" version="1.1" id="Capa_1" xmlns="http://www.w3.org/2000/svg" xmlns:xlink="http://www.w3.org/1999/xlink" 
	 width="800px" height="800px" viewBox="0 0 261.616 261.616"
	 xml:space="preserve">
<g>
	<path d="M251.269,220.603c-1.114,2.094,1.176,9.097,1.931,11.41c0.073,0.231,0.115,0.463,0.128,0.701
		c0.049,0.834,0.371,7.964-2.198,12.933c-0.128,1.485-0.646,4.628-2.862,6.759c-1.163,1.127-2.606,1.803-4.263,1.991
		c-1.284,1.091-3.409,2.126-6.369,1.931c-0.791,0.335-1.984,0.682-3.52,0.682c-0.73,0-1.559-0.091-2.447-0.286
		c-1.182,0.195-3.374,0.335-6.169-0.56c-1.37,0.219-3.062,0-4.438-1.121c-1.528-1.242-2.277-3.252-2.247-5.979
		c-0.322-0.219-0.64-0.511-0.932-0.84c-1.79-2.034-2.265-5.261-1.455-9.853c0.055-0.329,0.177-0.646,0.347-0.926
		c0.226-0.383,5.401-9.14,11.904-13.444c0.523-4.573,0.986-10.845,0.566-12.685c-1.687-7.44-3.386-17.853-0.109-26.195
		c-4.08-1.51-11.07-4.359-14.383-7.307c-3.045-2.722-5.364-4.908-7.429-7.222c-1.803,6.454-7.624,15.448-22.444,27.182
		c0.487,6.37,1.881,30.678-3.757,44.92c-0.573,1.437-2.211,2.149-3.63,1.571c-1.431-0.561-2.137-2.18-1.57-3.611
		c5.894-14.924,3.288-43.598,3.258-43.891c-0.086-0.949,0.311-1.881,1.071-2.466c24.168-18.791,22.694-28.467,21.671-30.994
		c-0.085-0.207-0.097-0.426-0.128-0.646c-4.378,8.964-14.54,15.271-26.372,15.271c-15.801,0-28.661-11.265-28.661-25.105v-11.539
		c0-1.546,1.242-2.801,2.789-2.801c1.546,0,2.801,1.255,2.801,2.801v11.521c0,10.771,10.339,19.54,23.06,19.54
		c12.727,0,23.078-8.769,23.078-19.54c0-1.541,1.248-2.783,2.795-2.783c1.546,0,2.788,1.242,2.788,2.783
		c0,2.594-0.572,5.035-1.412,7.386c0.17-0.14,0.329-0.305,0.529-0.408c1.291-0.657,2.856-0.255,3.636,0.956
		c3.361,5.188,6.181,8.05,11.605,12.896c3.118,2.783,12.19,6.156,15.424,7.217c0.811,0.268,1.443,0.895,1.748,1.686
		c0.298,0.792,0.219,1.688-0.22,2.406c-4.171,7.014-2.411,17.694-0.73,25.117c0.864,3.721-0.365,13.957-0.621,15.972
		c-0.109,0.89-0.633,1.669-1.425,2.095c-5.023,2.771-9.676,9.913-10.802,11.729c-0.573,3.75,0.231,4.676,0.243,4.688
		c0.768-0.061,1.413,0.256,1.973,0.865c0.561,0.621,0.597,1.425,0.476,2.24c-0.335,2.424,0.109,3.105,0.109,3.105
		c0.633-0.219,1.395-0.34,2.021-0.115c2.582,0.986,4.177,0.566,4.238,0.542c0.499-0.134,1.102-0.158,1.595-0.019
		c2.01,0.579,3.057-0.012,3.105-0.036c0.549-0.316,1.328-0.536,1.931-0.433c2.125,0.305,2.886-0.548,2.966-0.646
		c0.535-0.828,1.437-1.254,2.387-1.181c0.949,0.012,1.278-0.231,1.534-0.476c0.975-0.943,1.175-3.05,1.175-3.525
		c0-0.499,0.128-0.986,0.384-1.431c1.681-2.826,1.876-7.916,1.803-10.054c-1.79-5.498-3.435-11.605-1.431-15.399
		c3.915-7.404,9.225-30.27,9.273-30.506c2.362-15.747-4.98-26.379-9.84-33.406c-7.039-10.181-20.472-16.507-20.605-16.568
		c-0.816-0.383-1.407-1.126-1.56-2.009c-3.258-16.974-18.243-21.188-25.769-20.92c-17.014,0.463-36.889-9.87-37.735-10.312
		c-0.907-0.481-1.479-1.434-1.479-2.469c0-12.303,2.204-18.995,2.302-19.269c0.073-0.204,0.158-0.399,0.28-0.585
		c4.062-6.527,3.885-9.404,3.629-10.339c-0.17-0.566-0.45-0.737-0.499-0.762c-1.327-0.404-1.991-1.656-1.79-3.029
		c3.044-20.371-11.496-23.899-12.124-24.043c-0.012,0-3.921-0.685-6.643-0.469c-0.146,0.019-0.476,0.019-0.634,0
		c-2.313-0.186-5.669,0.295-6.771,0.493c-0.493,0.125-15.021,3.818-11.998,24.025c0.207,1.373-0.624,2.682-1.946,3.087
		c0.07-0.04-0.173,0.112-0.341,0.703c-0.268,0.938-0.451,3.806,3.614,10.333c0.119,0.18,0.207,0.381,0.277,0.585
		c0.091,0.274,2.305,6.972,2.305,19.269c0,1.346-0.959,2.505-2.286,2.75c-0.287,0.048-28.827,5.386-41.796,14.37
		c-1.279,0.88-3.011,0.563-3.891-0.703c-0.256-0.369-0.38-0.773-0.441-1.185c-3.873-5.961-13.825-15.034-16.794-17.677
		c-3.118-2.789-12.188-6.156-15.417-7.222c-0.807-0.268-1.446-0.877-1.748-1.678c-0.299-0.798-0.216-1.684,0.219-2.411
		c4.184-7.042,2.421-17.71,0.731-25.118c-0.843-3.727,0.377-13.953,0.633-15.969c0.113-0.883,0.636-1.662,1.428-2.095
		c4.515-2.505,9.085-8.933,10.802-11.721c0.579-3.766-0.244-4.683-0.25-4.689c-0.91,0.061-1.416-0.262-1.973-0.874
		c-0.56-0.618-0.597-1.416-0.478-2.238c0.335-2.42-0.1-3.111-0.106-3.118c-0.624,0.225-1.385,0.35-2.016,0.113
		c-2.572-0.98-4.152-0.554-4.226-0.536c-0.5,0.137-1.099,0.162-1.596,0.013c-2.021-0.569-3.087,0.024-3.129,0.048
		c-0.551,0.314-1.312,0.518-1.927,0.417c-2.101-0.299-2.844,0.551-2.92,0.642c-0.53,0.843-1.352,1.306-2.393,1.193
		c-0.88,0.012-1.279,0.241-1.528,0.472c-0.929,0.898-1.166,2.898-1.172,3.528c0,0.493-0.137,0.986-0.387,1.41
		c-1.671,2.819-1.869,7.919-1.802,10.065c1.784,5.504,3.443,11.615,1.428,15.4c-3.916,7.389-9.222,30.26-9.271,30.491
		c-2.271,15.083,4.652,25.029,9.7,32.288l0.737,1.06c6.978,10.068,19.954,16.617,20.085,16.672c0.779,0.384,1.327,1.126,1.495,1.967
		c3.248,16.921,18.115,21.056,25.696,20.922c-0.475-1.802-0.773-3.665-0.773-5.59c0-1.546,1.248-2.782,2.795-2.782
		c1.543,0,2.792,1.236,2.792,2.782c0,10.772,10.352,19.54,23.072,19.54c12.727,0,23.069-8.768,23.069-19.54v-11.509
		c0-1.546,1.248-2.801,2.795-2.801c1.546,0,2.795,1.255,2.795,2.801v11.521c0,13.853-12.86,25.123-28.671,25.123
		c-11.524,0-21.419-6.027-25.964-14.638c-0.231,0.194-0.475,0.365-0.761,0.475c-0.935,3.118-1.035,12.739,21.836,30.531
		c0.755,0.585,1.16,1.51,1.065,2.466c-0.024,0.293-2.625,28.967,3.261,43.891c0.563,1.425-0.137,3.051-1.577,3.629
		c-0.335,0.122-0.685,0.189-1.029,0.189c-1.114,0-2.17-0.664-2.6-1.778c-5.624-14.242-4.232-38.544-3.754-44.92
		c-21.157-16.763-23.973-27.919-22.92-34.093c-9.396-1.34-22.591-7.338-26.369-23.814c-3.635-1.985-14.422-8.422-20.971-17.866
		l-0.722-1.041c-5.276-7.575-13.244-19.022-10.607-36.52c0.262-1.179,5.562-24.031,9.822-32.068
		c1.114-2.095-1.172-9.104-1.921-11.411c-0.076-0.231-0.119-0.472-0.131-0.71c-0.018-0.487-0.125-3.163,0.299-6.287H21.96v20.965
		c0,1.546-1.249,2.792-2.792,2.792c-1.547,0-2.795-1.251-2.795-2.792V7.402c0-1.547,1.254-2.795,2.795-2.795
		c1.543,0,2.792,1.254,2.792,2.795v20.962h8.001c0.143-0.347,0.274-0.715,0.448-1.047c0.119-1.477,0.642-4.613,2.855-6.752
		c1.16-1.115,2.612-1.788,4.26-1.988c1.278-1.096,3.361-2.138,6.36-1.928c1.172-0.499,3.243-1.022,5.986-0.398
		c1.166-0.207,3.349-0.335,6.159,0.56c1.367-0.21,3.062,0,4.433,1.118c1.528,1.239,2.277,3.248,2.247,5.973
		c0.323,0.238,0.643,0.518,0.94,0.856c0.828,0.935,1.346,2.161,1.614,3.629h4.317V7.415c0-1.546,1.245-2.792,2.792-2.792
		c1.546,0,2.795,1.251,2.795,2.792V54.94c0,1.547-1.254,2.795-2.795,2.795c-1.547,0-2.792-1.254-2.792-2.795V33.984h-4.39
		c-0.031,0.216-0.031,0.399-0.076,0.63c-0.055,0.329-0.174,0.646-0.347,0.935c-0.231,0.393-5.419,9.134-11.911,13.436
		c-0.523,4.582-0.986,10.857-0.569,12.702c1.69,7.413,3.413,17.813,0.107,26.189c4.08,1.501,11.082,4.356,14.385,7.307
		c3.711,3.304,12.328,11.265,16.825,17.494c12.275-7.23,32.242-11.764,39.043-13.162c-0.213-8.567-1.559-13.709-1.909-14.916
		c-3.976-6.473-5.236-11.411-3.857-15.095c0.411-1.103,1.035-1.964,1.714-2.606c-2.649-23.918,16.438-28.521,16.645-28.57
		c0.304-0.055,4.828-0.886,8.342-0.578c3.209-0.296,7.745,0.523,7.928,0.56c0.317,0.067,19.419,4.67,16.77,28.588
		c0.683,0.643,1.304,1.504,1.705,2.6c1.376,3.684,0.109,8.623-3.872,15.101c-0.359,1.236-1.754,6.579-1.919,15.485
		c4.829,2.329,20.558,9.319,33.467,8.92c8.969-0.155,26.628,4.591,31.109,24.089c3.775,1.93,14.912,8.189,21.445,17.652
		c5.486,7.928,13.592,19.656,10.852,37.813C260.835,189.706,255.537,212.564,251.269,220.603z M181.019,163.022
		c0-2.216-1.767-4.03-3.958-4.03c-2.181,0-3.922,1.814-3.922,4.03c0,2.229,1.748,4.031,3.922,4.031
		C179.252,167.054,181.019,165.251,181.019,163.022z M105.945,163.022c0,2.229,1.757,4.031,3.94,4.031
		c2.177,0,3.934-1.803,3.934-4.031c0-2.216-1.757-4.03-3.934-4.03C107.702,159.004,105.945,160.807,105.945,163.022z
		 M143.418,180.462c-15.178,0-27.517,12.35-27.517,27.523v31.773c0,1.534,1.248,2.789,2.795,2.789c1.546,0,2.792-1.255,2.792-2.789
		v-31.773c0-12.081,9.844-21.934,21.931-21.934s21.938,9.84,21.938,21.934v32.954c0,1.547,1.236,2.802,2.783,2.802
		s2.795-1.255,2.795-2.802v-32.954C170.946,192.812,158.598,180.462,143.418,180.462z M151.468,218.593c0.018,0,0.036,0,0.055,0
		c5.614,0,9.603-3.958,9.767-4.116c1.084-1.097,1.084-2.874-0.012-3.958c-1.084-1.084-2.862-1.084-3.958,0.024
		c-0.024,0.024-2.655,2.594-5.834,2.46c-1.796,0-3.556-0.841-5.272-2.375v-4.47c1.681,0.804,3.428,1.206,5.242,1.218
		c0.019,0,0.03,0,0.049,0c5.62,0,9.608-3.957,9.773-4.128c1.084-1.097,1.077-2.862-0.013-3.958
		c-1.096-1.084-2.861-1.072-3.958,0.012c-0.024,0.037-2.545,2.479-5.809,2.479c-0.006,0-0.013,0-0.024,0
		c-1.796-0.012-3.556-0.84-5.273-2.375v-4.932c0-1.547-1.248-2.795-2.789-2.795c-1.546,0-2.788,1.248-2.788,2.795v4.956
		c-1.693,1.522-3.453,2.339-5.23,2.351c-3.282,0.146-5.804-2.411-5.88-2.479c-1.077-1.071-2.843-1.084-3.939,0
		c-1.099,1.084-1.105,2.85-0.021,3.958c0.171,0.159,4.159,4.129,9.773,4.129c0.012,0,0.03,0,0.043,0
		c1.82-0.013,3.562-0.427,5.255-1.218v4.469c-1.693,1.522-3.459,2.339-5.237,2.363c-0.024,0-0.049,0-0.073,0
		c-3.227,0-5.757-2.424-5.812-2.467c-1.093-1.09-2.856-1.09-3.94,0c-1.099,1.084-1.105,2.85-0.021,3.946
		c0.17,0.164,4.152,4.128,9.767,4.128c0.019,0,0.037,0,0.049,0c1.82-0.012,3.574-0.42,5.249-1.217v5.955
		c-1.687,1.534-3.452,2.35-5.23,2.381c-0.019,0-0.043,0-0.073,0c-3.215,0-5.732-2.418-5.806-2.484
		c-1.078-1.084-2.844-1.097-3.943-0.007c-1.096,1.091-1.102,2.856-0.018,3.952c0.17,0.17,4.153,4.129,9.767,4.129
		c0.019,0,0.036,0,0.055,0c1.82,0,3.574-0.427,5.249-1.219v1.084c0,1.547,1.248,2.801,2.795,2.801s2.789-1.254,2.789-2.801v-1.107
		c1.681,0.803,3.434,1.217,5.255,1.229c0.018,0,0.036,0,0.055,0c5.614,0,9.597-3.97,9.755-4.128c1.09-1.097,1.077-2.85,0-3.934
		c-1.084-1.097-2.85-1.097-3.946-0.025c-0.024,0.037-2.569,2.479-5.814,2.479c-0.024,0-0.049,0-0.073,0
		c-1.784-0.012-3.538-0.84-5.23-2.375v-5.955C147.905,218.179,149.653,218.593,151.468,218.593z M143.43,239.161
		c-1.875,0-3.386,1.523-3.386,3.398s1.517,3.386,3.386,3.386c1.863,0,3.373-1.511,3.373-3.386S145.299,239.161,143.43,239.161z
		 M233.641,168.32c0.098,1.462,1.327,2.595,2.776,2.595c0.073,0,0.134,0,0.207,0c1.535-0.122,2.698-1.456,2.582-2.99
		c-1.942-26.512-25.44-29.265-25.678-29.289c-1.553-0.164-2.917,0.95-3.069,2.479c-0.152,1.534,0.956,2.916,2.49,3.068
		C213.729,144.256,232.027,146.424,233.641,168.32z M10.979,9.266c-1.543,0-2.792,1.248-2.792,2.795v38.203
		c0,1.547,1.254,2.795,2.792,2.795c1.547,0,2.795-1.248,2.795-2.795V12.066C13.779,10.52,12.525,9.266,10.979,9.266z M80.559,53.071
		c1.547,0,2.795-1.249,2.795-2.795V12.073c0-1.546-1.254-2.795-2.795-2.795c-1.546,0-2.792,1.249-2.792,2.795v38.204
		C77.768,51.823,79.013,53.071,80.559,53.071z M2.792,20.445C1.248,20.445,0,21.7,0,23.252v15.844c0,1.546,1.254,2.795,2.792,2.795
		c1.547,0,2.795-1.255,2.795-2.795V23.252C5.593,21.7,4.338,20.445,2.792,20.445z M88.746,41.882c1.547,0,2.795-1.251,2.795-2.792
		V23.252c0-1.546-1.254-2.801-2.795-2.801c-1.547,0-2.792,1.255-2.792,2.801v15.844C85.954,40.643,87.199,41.882,88.746,41.882z
		 M47.9,105.209c-0.158-1.528-1.553-2.658-3.062-2.5c-1.535,0.149-2.649,1.513-2.506,3.042c0.018,0.237,2.588,23.757,29.076,25.96
		c0.079,0.013,0.155,0.013,0.234,0.013c1.437,0,2.664-1.103,2.783-2.561c0.131-1.537-1.011-2.886-2.551-3.017
		C50.12,124.32,47.973,105.989,47.9,105.209z"/>
</g>
</svg>