<!DOCTYPE svg PUBLIC "-//W3C//DTD SVG 1.1//EN" "http://www.w3.org/Graphics/SVG/1.1/DTD/svg11.dtd">
<!-- Uploaded to: SVG Repo, www.svgrepo.com, Transformed by: SVG Repo Mixer Tools -->
<svg fill="#076045" version="1.1" id="Capa_1" xmlns="http://www.w3.org/2000/svg" xmlns:xlink="http://www.w3.org/1999/xlink" width="800px" height="800px" viewBox="0 0 199.897 199.897" xml:space="preserve">
<g id="SVGRepo_bgCarrier" stroke-width="0"/>
<g id="SVGRepo_tracerCarrier" stroke-linecap="round" stroke-linejoin="round"/>
<g id="SVGRepo_iconCarrier"> <g> <path d="M158.112,26.997c-1.183-8.656-11.211-20.167-12.389-21.484C144.22,1.954,141.292,0,137.45,0 c-1.73,0-3.005,0.392-3.021,0.402l-4.991,1.283c-2.526,0.738-4.235,2.741-4.558,5.379c-0.274,2.181,0.472,4.244,1.808,5.015 c0.732,0.427,1.975,0.583,2.881,0.583c0.821,0,1.938-0.118,2.583-0.66c0.115-0.101,0.378-0.331,0.428-1.004 c3.709-0.068,4.951-1.786,5.346-2.752l1.28-0.241c0.084-0.016,0.29-0.087,0.355-0.117c0.274,0.096,0.714,1.229,0.826,2.229 c-1.032,9.589,2.372,14.206,3.68,15.601c-0.347,0.534-0.943,0.796-1.775,0.796c-0.107,0-0.196,0-0.262,0 c-1.643-0.807-3.333-1.204-5.019-1.204c-4.753,0-8.219,3.149-9.488,4.487c-0.961-0.578-2.118-0.857-3.441-0.857 c-4.523,0-9.785,3.406-10.78,4.08c-4.121,0.723-4.436-4.159-4.449-4.367c-0.12-1.951-0.229-3.042-0.304-3.658 c0.35,0.061,0.715-0.084,0.896-0.404c2.052-3.58,2.643-5.889,1.844-7.262c-0.349-0.588-0.937-0.963-1.68-1.059 c0.142-3.674-0.685-6.523-2.469-8.471c-3.773-4.084-10.155-2.596-10.335-2.55c-3.171,0.829-5.385,2.433-6.568,4.739 c-1.4,2.736-0.976,5.732-0.582,7.308c-0.292,0.118-0.544,0.301-0.729,0.567c-0.726,1.009-0.196,2.728-0.126,2.902 c0.336,2.823,1.172,4.331,2.491,4.503c0.306,1.347,0.862,2.764,1.053,3.212l0.149,3.491c-0.38,2.178-1.45,2.43-2.229,2.43 c-1.781,0-3.966-1.482-4.438-1.814c-1.774-2.309-4.812-3.535-8.796-3.535c-2.538,0-4.804,0.481-5.827,0.745 c-2.186-2.851-5.148-4.342-8.601-4.342c-1.716,0-3.224,0.358-4.272,0.711c0.266-2.914-0.215-7.907-0.397-9.633 c0.882-1.338,2.085-4.75,2.701-6.6c1.166,0.525,2.791,0.745,3.794,0.824c0.542,1.642,1.814,2.353,1.954,2.427 c0.78,0.306,1.534,0.139,2.048-0.449c1.377-1.562,0.877-6.438,0.717-7.767c0.156-0.75,0.021-1.472-0.386-2.096 c-1.106-1.668-3.877-2.106-4.097-2.134c-1.401-0.358-2.72-0.561-3.918-0.561c-5.363,0-6.818,3.631-6.854,3.732l-2.015,4.202 c-3.037,3.25-8.337,13.319-8.607,13.847c-3.38,8.875-0.119,10.797,0.142,10.897l5.701,4.254c10.132,9.39,16.499,8,16.317,8 l0.304-0.005c2.504,0,4.333,0.572,5.29,1.636c0.892,1.004,0.775,2.123,0.764,2.309c0.306,7.233,5.138,14.563,5.838,15.576 c2.519,8.232,2.524,18.845-0.006,24.769c-0.096,0.224-0.208,0.481-0.309,0.723h-0.128v0.302 c-1.898,4.438-4.706,11.074-4.729,11.124c-5.379,16.443-2.958,23.195-0.617,29.724c0.325,0.902,0.646,1.806,0.946,2.736 c0.476,1.461,0.219,4.371-0.01,6.943c-0.203,2.237-0.387,4.355-0.161,5.768c0.268,1.685,0.555,4.191,0.855,6.852 c0.556,4.881,1.177,10.407,1.996,13.472c2.736,10.249,5.591,17.931,6.411,20.06c-0.969,0.849-2.376,2.507-2.925,3.18 c-1.653,2.972-6.619,3.157-6.663,3.157c-0.112,0.012-0.219,0.032-0.32,0.082c-2.407,1.069-3.513,2.102-3.48,3.234 c0.037,1.197,1.302,1.707,1.396,1.739c0.378,0.171,1.122,0.395,3.212,0.395c3.384,0,8.101-0.586,8.297-0.606 c0.14-0.018,0.275-0.064,0.387-0.148c0.869-0.624,2.837-0.975,5.538-0.975c2.342,0,4.443,0.252,4.464,0.252 c0.033,0.013,0.225,0.013,0.259,0.013c1.607,0,2.447-0.724,2.874-1.32c1.44-2.074,0.156-5.717,0.033-6.042l-0.202-0.793 c-1.092-4.213-3.642-14.094-2.386-18.323c1.49-5.02,1.474-10.394,1.004-13.469c-0.562-3.677-4.447-12.641-4.993-13.888 c-0.528-7.551,5.059-21.133,7.396-26.419c0.409,1.691,0.838,3.48,1.261,5.236c0.773,3.245,1.53,6.396,2.107,8.641 c3.096,11.939,8.017,16.571,9.511,17.745c-1.83,17.489-1.167,20.132,2.92,25.604c4.668,6.237,6.442,15.605,6.714,17.204 c-0.743,1.816-0.78,3.88-0.78,3.972c0,0.104,0.009,0.198,0.053,0.296c0.815,2.276,4.547,2.757,7.54,2.757 c0.685,0,1.221-0.021,1.488-0.043c3.268,1.149,7.979,1.318,10.529,1.318c0.826,0,1.346-0.021,1.346-0.021 c0.163-0.005,0.339-0.06,0.471-0.158c1.056-0.803,1.154-1.609,1.045-2.151c-0.372-1.836-3.836-2.817-4.721-3.015 c-4.938-2.351-7.657-5.975-8.309-11.086c-0.371-2.923-0.114-6.785,0.176-10.89c0.312-4.52,0.629-9.192,0.116-13.04 c-0.7-5.361-2.716-8.366-4.183-10.571c-0.612-0.925-1.148-1.724-1.466-2.501c-1.099-2.714-1.28-8.941-0.914-12.213 c0.143-1.335,0.438-3.234,0.667-4.729c0.148-0.963,0.279-1.756,0.317-2.134c1.018-8.515-0.514-14.807-1.242-17.172 c-1.327-5.17-6.095-16.467-6.323-17.011c-1.343-2.589-1.097-12.903,0.42-17.254c0.832-2.454,3.233-8.61,4.931-10.865l1.209-1.63 c2.948-3.932,6.292-8.405,7.668-11.598c2.488-5.77,3.754-6.32,3.664-6.32c11.048,0,17.117-7.47,17.362-7.79 c1.652-2.022,4.296-4.673,6.167-5.699C158.63,30.279,158.129,27.114,158.112,26.997z M86.708,143.832 c0.005,0.094,0.026,0.188,0.065,0.273c0.044,0.106,4.372,9.943,4.924,13.6c0.476,3.15,0.371,8.294-0.946,12.732 c-1.396,4.684,1.149,14.512,2.363,19.233l0.231,0.859c0.304,0.826,0.988,3.431,0.191,4.58c-0.107,0.147-0.427,0.607-1.541,0.607 c-0.091-0.011-2.225-0.28-4.674-0.28c-2.982,0-5.105,0.396-6.325,1.172c-0.936,0.12-4.994,0.579-7.896,0.579 c-1.776,0-2.353-0.174-2.561-0.262c-0.152-0.071-0.336-0.197-0.364-0.229c0-0.011,0.117-0.584,2.342-1.598 c1.016-0.069,5.962-0.513,7.821-3.892c1.118-1.333,2.572-2.905,2.958-3.124c0.377-0.208,0.539-0.656,0.377-1.056 c-0.035-0.094-3.378-8.509-6.574-20.447c-0.782-2.951-1.401-8.418-1.949-13.232c-0.304-2.688-0.587-5.21-0.869-6.929 c-0.197-1.204-0.005-3.311,0.18-5.351c0.257-2.867,0.521-5.84-0.063-7.629c-0.309-0.94-0.638-1.859-0.962-2.779 c-2.348-6.545-4.566-12.723,0.609-28.564c0,0,0.084-0.187,0.204-0.471l20.691,13.27C93.323,118.371,85.978,134.84,86.708,143.832z M119.994,127.169c-0.044,0.355-0.164,1.139-0.312,2.068c-0.235,1.516-0.539,3.437-0.684,4.79 c-0.372,3.385-0.225,9.951,1.028,13.032c0.378,0.937,0.958,1.789,1.625,2.802c1.451,2.172,3.262,4.875,3.907,9.86 c0.504,3.678,0.182,8.269-0.12,12.714c-0.29,4.179-0.562,8.124-0.164,11.215c0.733,5.719,3.759,9.773,9.423,12.462 c1.764,0.431,3.529,1.295,3.628,1.776c0.005,0.022-0.049,0.126-0.22,0.302c-0.224,0.005-0.566,0.01-1,0.01 c-1.993,0-6.972-0.126-10.118-1.285c-0.099-0.032-0.191-0.055-0.295-0.055c-0.022,0-0.045,0.005-0.069,0.005 c-0.014,0-0.636,0.05-1.535,0.05c-3.172,0-5.406-0.578-5.903-1.517c0.023-0.509,0.142-2.096,0.729-3.386 c0.069-0.144,0.093-0.312,0.069-0.472c-0.069-0.448-1.728-11.037-7.074-18.189c-3.668-4.913-4.467-6.763-2.544-24.892 c0.036-0.322-0.122-0.621-0.383-0.804c-0.057-0.038-5.809-3.869-9.223-17.066c-0.575-2.239-1.327-5.374-2.101-8.608 c-0.576-2.413-1.16-4.848-1.704-7.037l18.892-12.897c1.204,3.148,2.418,6.483,2.983,8.695 C119.353,112.471,120.992,118.742,119.994,127.169z M115.233,100.438l-19.242,13.139L74.905,100.05 c0.123-0.295,0.248-0.58,0.394-0.93h6.796c0.464,0,0.84-0.367,0.84-0.832c0-0.466-0.376-0.833-0.84-0.833h-6.079 c0.268-0.632,0.544-1.285,0.829-1.969c0.112,0.055,0.213,0.131,0.348,0.131h12.955c0.464,0,0.84-0.367,0.84-0.832 c0-0.465-0.375-0.833-0.84-0.833H77.501c0.312-0.754,0.626-1.481,0.924-2.176h33.526c0.156,0.846,0.351,1.62,0.611,2.129 C112.595,93.957,113.837,96.881,115.233,100.438z M154.703,30.55c-2.078,1.119-4.832,3.877-6.658,6.112 c-0.056,0.077-5.841,7.144-16.062,7.144c-1.33,0-3.129,2.539-5.202,7.346c-1.299,3.021-4.575,7.401-7.471,11.272l-1.21,1.62 c-2.007,2.684-4.589,9.633-5.177,11.332c-1.144,3.278-1.672,10.09-1.22,14.701H79.142c0.007-0.021,0.017-0.044,0.028-0.065 c2.727-6.373,2.738-17.327,0.027-26.044c-0.022-0.091-0.06-0.159-0.119-0.229c-0.049-0.08-5.304-7.65-5.62-14.654 c0.005-0.077,0.229-1.883-1.153-3.456c-1.3-1.491-3.513-2.229-6.579-2.229l-0.506,0.021c-0.215,0.033-5.855,0.873-15.042-7.628 l-5.869-4.369c-0.021-0.011-2.285-1.502,0.481-8.796c0.058-0.112,5.533-10.496,8.383-13.466c0.063-0.061,0.119-0.135,0.154-0.219 l2.101-4.38c0.044-0.112,1.146-2.706,5.311-2.706c1.053,0,2.224,0.167,3.586,0.52c0.6,0.09,2.444,0.539,3.033,1.417 c0.172,0.271,0.212,0.556,0.117,0.903c-0.027,0.112-0.033,0.219-0.021,0.332c0.439,3.378,0.182,6.336-0.354,6.64 c-0.04-0.027-0.955-0.566-1.185-1.855c-0.065-0.383-0.392-0.673-0.788-0.69c-1.714-0.09-3.901-0.539-4.287-1.042 c-0.191-0.241-0.514-0.375-0.812-0.314c-0.31,0.062-0.56,0.282-0.656,0.577c-0.841,2.646-2.313,6.673-2.941,7.379 c-0.157,0.175-0.236,0.411-0.208,0.651c0.42,3.782,0.764,9.62,0.224,10.763c-0.151,0.337-0.082,0.717,0.18,0.969 c0.251,0.244,0.637,0.31,0.968,0.137c0.022-0.017,2.219-1.127,5.005-1.127c3.11,0,5.66,1.385,7.576,4.107 c0.208,0.303,0.582,0.416,0.929,0.327c0.028-0.007,2.792-0.825,5.923-0.825c3.536,0,6.07,0.999,7.524,2.958 c0.053,0.073,0.106,0.123,0.169,0.175c0.118,0.087,2.975,2.219,5.536,2.219c1.204,0,3.306-0.5,3.899-4.002l-0.151-3.819 c0-0.107-0.026-0.203-0.068-0.304c-0.011-0.022-0.927-2.208-1.146-3.743c-0.042-0.285-0.213-0.539-0.464-0.654 c-0.252-0.119-0.551-0.114-0.796,0.044c-0.151,0-0.769-0.515-1.106-3.207c-0.194-0.58-0.267-1.365-0.105-1.529 c0.045,0,0.131,0.014,0.248,0.046c0.306,0.044,0.616-0.033,0.824-0.276c0.205-0.23,0.263-0.567,0.149-0.846 c-0.01-0.039-1.434-3.855,0.191-7.021c0.959-1.866,2.809-3.16,5.467-3.86c0.03-0.011,5.608-1.284,8.705,2.063 c1.607,1.748,2.265,4.47,1.979,8.123c-0.022,0.262,0.093,0.522,0.285,0.695c0.201,0.181,0.491,0.235,0.738,0.192 c0,0,0.131-0.033,0.308-0.033c0.323,0,0.534,0.087,0.627,0.252c0.148,0.262,0.466,1.39-1.575,5.086 c-0.586-0.044-1.116,0.117-1.38,0.506c-0.191,0.301-0.212,0.675-0.081,0.99c0.089,0.336,0.257,2.342,0.36,4.005 c0.121,2.288,1.54,6.859,6.611,5.896c0.12-0.022,0.229-0.074,0.327-0.129c0.061-0.047,5.593-3.885,9.973-3.885 c1.246,0,2.269,0.331,3.046,0.961c0.176,0.139,0.395,0.188,0.618,0.183c0.225-0.027,0.432-0.134,0.575-0.322 c0.032-0.047,3.578-4.447,8.689-4.447c1.472,0,2.951,0.359,4.404,1.084c0.079,0.033,0.153,0.066,0.237,0.076 c0,0,0.252,0.053,0.639,0.053c1.774,0,3.086-0.881,3.591-2.416c0.108-0.331,0-0.69-0.265-0.908 c-0.043-0.044-4.684-4.027-3.545-14.752c-0.069-0.657-0.493-3.93-2.502-3.93c-0.257,0-0.519,0.063-0.781,0.176l-1.675,0.32 c-0.345,0.066-0.607,0.344-0.673,0.701c-0.018,0.082-0.454,2.15-4.733,1.915c-0.225-0.101-0.504,0.084-0.673,0.279 c-0.164,0.197-0.239,0.454-0.191,0.706c0.027,0.164,0.051,0.361,0.051,0.517c-0.237,0.091-0.691,0.179-1.331,0.179 c-0.929,0-1.746-0.179-2.036-0.348c-0.635-0.375-1.181-1.743-0.979-3.354c0.111-0.96,0.673-3.224,3.329-3.987l5.016-1.285 c0.022-0.025,6.769-2.031,9.324,4.263c0.044,0.096,0.093,0.167,0.153,0.246c0.116,0.118,10.911,12.206,12.078,20.717 C156.464,27.338,156.761,29.407,154.703,30.55z M128.317,43.875c0,6.102-5.696,11.064-12.69,11.064 c-6.993,0-12.679-4.963-12.679-11.064v-5.28c0-0.465,0.367-0.834,0.833-0.834c0.464,0,0.836,0.369,0.836,0.834v5.28 c0,5.171,4.936,9.379,11.005,9.379c6.07,0,11.01-4.208,11.01-9.379c0-0.465,0.374-0.843,0.837-0.843 C127.934,43.032,128.317,43.409,128.317,43.875z M86.372,54.939c-6.999,0-12.688-4.963-12.688-11.064 c0-0.465,0.375-0.843,0.841-0.843c0.464,0,0.84,0.377,0.84,0.843c0,5.171,4.938,9.379,11.007,9.379 c6.068,0,11.003-4.208,11.003-9.379v-5.28c0-0.465,0.375-0.834,0.84-0.834c0.467,0,0.839,0.369,0.839,0.834v5.28 C99.054,49.976,93.365,54.939,86.372,54.939z M114.571,48.547c0-1.02,0.81-1.844,1.808-1.844c0.99,0,1.804,0.824,1.804,1.844 c0,1.029-0.813,1.844-1.804,1.844C115.38,50.392,114.571,49.571,114.571,48.547z M83.81,48.547c0-1.02,0.807-1.844,1.804-1.844 c0.999,0,1.805,0.824,1.805,1.844c0,1.029-0.806,1.844-1.805,1.844C84.617,50.392,83.81,49.571,83.81,48.547z M109.968,68.081 v15.088c0,0.465-0.369,0.843-0.837,0.843c-0.465,0-0.843-0.377-0.843-0.843V68.081c0-5.771-4.7-10.475-10.475-10.475 c-5.785,0-10.484,4.703-10.484,10.475v14.551c0,0.465-0.376,0.835-0.84,0.835c-0.465,0-0.843-0.37-0.843-0.835V68.081 c0-6.701,5.459-12.16,12.161-12.16C104.504,55.927,109.968,61.38,109.968,68.081z M98.649,66.4v3.075 c0.912,0.862,1.864,1.344,2.854,1.354c0.005,0,0.013,0,0.013,0c1.67,0,2.953-1.253,2.97-1.264c0.336-0.336,0.854-0.336,1.188-0.005 c0.334,0.328,0.339,0.851,0.005,1.187c-0.076,0.071-1.767,1.753-4.162,1.753c-0.984,0.044-1.942-0.363-2.867-0.977v3.756 c0.912,0.862,1.864,1.349,2.854,1.349c0.005,0,0.013,0,0.013,0c1.67,0,2.953-1.247,2.97-1.261c0.336-0.336,0.854-0.336,1.188-0.006 c0.334,0.332,0.339,0.854,0.005,1.19c-0.076,0.071-1.767,1.754-4.162,1.754c-0.008,0-0.013,0-0.018,0c-1,0-1.943-0.405-2.85-0.988 v1.363c0,0.465-0.375,0.834-0.842,0.834c-0.464,0-0.842-0.369-0.842-0.834v-1.363c-0.907,0.583-1.848,0.988-2.852,0.988 c-0.005,0-0.011,0-0.017,0c-2.393,0-4.09-1.693-4.164-1.754c-0.325-0.336-0.325-0.859,0-1.185c0.326-0.336,0.859-0.336,1.188-0.006 c0.012,0.02,1.294,1.267,2.972,1.267c0.004,0,0.016,0,0.026,0c0.979-0.005,1.935-0.493,2.84-1.349v-3.768 c-0.906,0.583-1.846,0.978-2.851,0.988c-0.006,0-0.012,0-0.016,0c-2.395,0-4.09-1.693-4.165-1.753 c-0.325-0.336-0.325-0.859,0-1.182c0.326-0.336,0.856-0.325,1.188-0.005c0.01,0.016,1.293,1.269,2.97,1.269 c0.007,0,0.017,0,0.028,0c0.985-0.017,1.935-0.498,2.841-1.354V66.4c-0.906,0.583-1.851,0.974-2.846,0.974 c-0.006,0-0.012,0-0.016,0c-2.395,0-4.09-1.688-4.165-1.754c-0.325-0.336-0.325-0.859,0-1.182c0.326-0.336,0.856-0.326,1.188-0.006 c0.01,0.017,1.293,1.272,2.977,1.272c0.004,0,0.016,0,0.026,0c0.979-0.014,1.935-0.496,2.84-1.346v-2.455 c0-0.465,0.378-0.834,0.843-0.834c0.467,0,0.839,0.369,0.839,0.834v2.438c0.914,0.867,1.866,1.357,2.852,1.357 c0.006,0,0.011,0,0.011,0c1.678,0,2.96-1.256,2.978-1.267c0.333-0.336,0.854-0.336,1.187-0.005c0.336,0.329,0.34,0.851,0.006,1.188 c-0.076,0.071-1.768,1.753-4.157,1.753c-0.008,0-0.013,0-0.018,0C100.499,67.374,99.555,66.963,98.649,66.4z M99.364,83.5 c0,0.861-0.695,1.551-1.545,1.551c-0.854,0-1.555-0.689-1.555-1.551c0-0.852,0.701-1.545,1.555-1.545 C98.668,81.955,99.364,82.649,99.364,83.5z M80.791,141.084c0.145,0.443-0.091,0.919-0.535,1.067 c-0.086,0.027-0.178,0.043-0.262,0.043c-0.354,0-0.684-0.224-0.796-0.579c-5.29-15.87-0.536-28.089-0.336-28.603 c0.173-0.432,0.649-0.623,1.093-0.469c0.43,0.168,0.638,0.66,0.466,1.088C80.375,113.768,75.706,125.829,80.791,141.084z M113.259,140.094c-0.079,0-0.149-0.011-0.232-0.033c-0.448-0.121-0.705-0.59-0.579-1.039c3.748-13.286,1.067-24.334,1.05-24.438 c-0.112-0.443,0.159-0.898,0.607-1.018c0.449-0.121,0.909,0.151,1.023,0.606c0.121,0.465,2.813,11.572-1.051,25.308 C113.963,139.848,113.624,140.094,113.259,140.094z M120.917,171.284c0.29,0.351,0.242,0.887-0.112,1.182 c-0.16,0.121-0.352,0.198-0.538,0.198c-0.241,0-0.479-0.12-0.651-0.321c-6.422-7.854-6.155-19.007-6.138-19.475 c0.01-0.451,0.384-0.817,0.836-0.817c0.005,0,0.016,0,0.021,0.006c0.466,0.017,0.827,0.399,0.816,0.864 C115.145,153.051,114.894,163.924,120.917,171.284z M82.38,148.505c0.197,0.229,4.768,5.697,3.705,20.919 c-0.027,0.448-0.398,0.788-0.834,0.788c-0.017,0-0.038-0.004-0.055-0.004c-0.466-0.035-0.814-0.435-0.781-0.899 c1.01-14.43-3.26-19.655-3.299-19.705c-0.298-0.355-0.259-0.881,0.093-1.182C81.55,148.127,82.089,148.149,82.38,148.505z M145.938,32.668c-0.126,0.449-0.593,0.706-1.041,0.583c-9.17-2.613-14.015,2.363-14.222,2.571 c-0.159,0.167-0.383,0.263-0.607,0.263c-0.209,0-0.416-0.085-0.578-0.23c-0.347-0.325-0.351-0.839-0.041-1.182 c0.232-0.252,5.724-5.939,15.902-3.042C145.812,31.76,146.064,32.225,145.938,32.668z M69.526,36.583 c0.225,0.416,0.068,0.919-0.343,1.139c-0.128,0.079-0.262,0.112-0.396,0.112c-0.297,0-0.588-0.165-0.739-0.443 c-4.496-8.342-13.645-5.021-14.019-4.865c-0.432,0.154-0.925-0.054-1.083-0.492c-0.161-0.427,0.057-0.919,0.49-1.081 C53.539,30.919,64.339,26.958,69.526,36.583z"/> </g> </g>
</svg>