<svg xmlns="http://www.w3.org/2000/svg" viewBox="0 0 500 500"><g id="freepik--background-simple--inject-76"><g><path d="M451.31,118.12c-1.65-2.74-3.36-5.43-5.14-8.06-23.81-34.98-63.44-58.93-101.95-69.77-16.87-4.76-34.2-7.25-51.49-7.88-113.43-4.12-155.1,89.4-191.65,113.52C64.53,170.04,8.45,211.23,15.49,297.76c5.34,65.79,42.76,128.69,111.11,157.31,7.53,3.16,15.44,5.91,23.72,8.19,15.41,4.24,32.1,6.9,50.1,7.7,51.68,2.3,93.64-10.15,134.68-41.52,9.54-7.29,19.03-15.52,31.41-16.42,9-.65,17.53,2.58,8.12,11.28-11.06,10.22,1.7,30.33,29.77,16.36,46.87-23.33,66.16-73.66,75.24-124.84,11.15-62.82,5.75-140.95-28.33-197.68Z" style="fill:#00C07B;"></path><path d="M451.31,118.12c-1.65-2.74-3.36-5.43-5.14-8.06-23.81-34.98-63.44-58.93-101.95-69.77-16.87-4.76-34.2-7.25-51.49-7.88-113.43-4.12-155.1,89.4-191.65,113.52C64.53,170.04,8.45,211.23,15.49,297.76c5.34,65.79,42.76,128.69,111.11,157.31,7.53,3.16,15.44,5.91,23.72,8.19,15.41,4.24,32.1,6.9,50.1,7.7,51.68,2.3,93.64-10.15,134.68-41.52,9.54-7.29,19.03-15.52,31.41-16.42,9-.65,17.53,2.58,8.12,11.28-11.06,10.22,1.7,30.33,29.77,16.36,46.87-23.33,66.16-73.66,75.24-124.84,11.15-62.82,5.75-140.95-28.33-197.68Z" style="fill:#fff; opacity:.7;"></path></g></g><g id="freepik--Pictures--inject-76"><g style="opacity:.3;"><rect x="31.06" y="42.33" width="87.65" height="126.23" style="fill:none; stroke:#000; stroke-linecap:round; stroke-linejoin:round;"></rect><rect x="60.17" y="84.24" width="29.45" height="42.41" style="fill:none; stroke:#000; stroke-linecap:round; stroke-linejoin:round;"></rect></g><g style="opacity:.3;"><rect x="368.29" y="50.57" width="52.77" height="59.51" style="fill:none; stroke:#000; stroke-linecap:round; stroke-linejoin:round;"></rect><rect x="385.81" y="70.33" width="17.73" height="20" style="fill:none; stroke:#000; stroke-linecap:round; stroke-linejoin:round;"></rect></g></g><g id="freepik--Furniture--inject-76"><g style="opacity:.3;"><polyline points="44.82 387.89 348.04 387.89 348.04 191.13 443.58 191.13 443.58 453.48" style="fill:none; stroke:#000; stroke-linecap:round; stroke-linejoin:round;"></polyline><rect x="353.08" y="195.06" width="85.26" height="61" style="fill:none; stroke:#000; stroke-linecap:round; stroke-linejoin:round;"></rect><rect x="353.08" y="261.31" width="85.26" height="61" style="fill:none; stroke:#000; stroke-linecap:round; stroke-linejoin:round;"></rect><rect x="353.08" y="327.55" width="85.26" height="61" style="fill:none; stroke:#000; stroke-linecap:round; stroke-linejoin:round;"></rect><rect x="393.58" y="200.61" width="14.12" height="55.39" style="fill:none; stroke:#000; stroke-linecap:round; stroke-linejoin:round;"></rect><rect x="393.58" y="333.36" width="14.12" height="55.39" style="fill:none; stroke:#000; stroke-linecap:round; stroke-linejoin:round;"></rect><rect x="407.51" y="333.36" width="14.12" height="55.39" style="fill:none; stroke:#000; stroke-linecap:round; stroke-linejoin:round;"></rect><rect x="421.44" y="333.36" width="14.12" height="55.39" style="fill:none; stroke:#000; stroke-linecap:round; stroke-linejoin:round;"></rect><rect x="371.86" y="199.19" width="14.17" height="55.57" transform="translate(72.19 -90.86) rotate(15.1)" style="fill:none; stroke:#000; stroke-linecap:round; stroke-linejoin:round;"></rect><rect x="360.67" y="331.61" width="14.17" height="55.57" transform="translate(816.41 610.62) rotate(164.9)" style="fill:none; stroke:#000; stroke-linecap:round; stroke-linejoin:round;"></rect><rect x="408.26" y="200.61" width="14.12" height="55.39" style="fill:none; stroke:#000; stroke-linecap:round; stroke-linejoin:round;"></rect><rect x="422.94" y="200.61" width="14.12" height="55.39" style="fill:none; stroke:#000; stroke-linecap:round; stroke-linejoin:round;"></rect><g><g><path d="M436.8,313.66c0,4.74-3.85,8.6-8.59,8.6h-57.8c-.83,0-1.5-.68-1.5-1.5s.67-1.5,1.5-1.5h57.8c3.08,0,5.59-2.51,5.59-5.6s-2.51-5.59-5.59-5.59h-57.8c-.83,0-1.5-.67-1.5-1.5s.67-1.5,1.5-1.5h57.8c4.74,0,8.59,3.85,8.59,8.59Z" style="fill:none; stroke:#000; stroke-linecap:round; stroke-linejoin:round;"></path><path d="M412.3,311.01v5.23c0,1.17-.45,2.23-1.18,3.02h-39.14c.73-.79,1.18-1.85,1.18-3.02v-5.23c0-1.13-.42-2.16-1.12-2.94h39.14c.7,.78,1.12,1.81,1.12,2.94Z" style="fill:none; stroke:#000; stroke-linecap:round; stroke-linejoin:round;"></path><path d="M433.8,313.66c0,3.09-2.51,5.6-5.59,5.6h-17.09c.73-.79,1.18-1.85,1.18-3.02v-5.23c0-1.13-.42-2.16-1.12-2.94h17.03c3.08,0,5.59,2.51,5.59,5.59Z" style="fill:none; stroke:#000; stroke-linecap:round; stroke-linejoin:round;"></path></g><path d="M410.74,305.25s-1.27,.25-1.14,1.4c.13,1.14,1.59,1.43,1.59,1.43" style="fill:none; stroke:#000; stroke-linecap:round; stroke-linejoin:round;"></path><path d="M410.65,319.23s-1.17,.27-1.06,1.5,1.47,1.53,1.47,1.53" style="fill:none; stroke:#000; stroke-linecap:round; stroke-linejoin:round;"></path></g><g><g><path d="M436.8,296.43c0,4.74-3.85,8.6-8.59,8.6h-57.8c-.83,0-1.5-.68-1.5-1.5s.67-1.5,1.5-1.5h57.8c3.08,0,5.59-2.51,5.59-5.6s-2.51-5.59-5.59-5.59h-57.8c-.83,0-1.5-.67-1.5-1.5s.67-1.5,1.5-1.5h57.8c4.74,0,8.59,3.85,8.59,8.59Z" style="fill:none; stroke:#000; stroke-linecap:round; stroke-linejoin:round;"></path><path d="M412.3,293.78v5.23c0,1.17-.45,2.23-1.18,3.02h-39.14c.73-.79,1.18-1.85,1.18-3.02v-5.23c0-1.13-.42-2.16-1.12-2.94h39.14c.7,.78,1.12,1.81,1.12,2.94Z" style="fill:none; stroke:#000; stroke-linecap:round; stroke-linejoin:round;"></path><path d="M433.8,296.43c0,3.09-2.51,5.6-5.59,5.6h-17.09c.73-.79,1.18-1.85,1.18-3.02v-5.23c0-1.13-.42-2.16-1.12-2.94h17.03c3.08,0,5.59,2.51,5.59,5.59Z" style="fill:none; stroke:#000; stroke-linecap:round; stroke-linejoin:round;"></path></g><path d="M410.74,288.01s-1.27,.25-1.14,1.4c.13,1.14,1.59,1.43,1.59,1.43" style="fill:none; stroke:#000; stroke-linecap:round; stroke-linejoin:round;"></path><path d="M410.65,302s-1.17,.27-1.06,1.5c.12,1.23,1.47,1.53,1.47,1.53" style="fill:none; stroke:#000; stroke-linecap:round; stroke-linejoin:round;"></path></g><g><polygon points="387.15 163.57 361.02 163.57 363.63 191.06 384.54 191.06 387.15 163.57" style="fill:none; stroke:#000; stroke-linecap:round; stroke-linejoin:round;"></polygon><polygon points="365.18 163.39 385.55 163.39 390.07 156.07 383.9 161.33 389.16 146.24 382.52 153.1 384.81 143.26 380.92 149.67 381.61 138.69 376.81 154.24 375.2 135.26 372.92 147.38 370.63 126.8 369.26 145.09 365.83 132.28 369.26 159.73 360.34 140.29 364.91 159.73 356.68 152.87 365.18 163.39" style="fill:none; stroke:#000; stroke-linecap:round; stroke-linejoin:round;"></polygon></g><rect x="353.7" y="398.08" width="84.39" height="45.97" style="fill:none; stroke:#000; stroke-linecap:round; stroke-linejoin:round;"></rect><rect x="165.06" y="398.08" width="182.42" height="45.97" style="fill:none; stroke:#000; stroke-linecap:round; stroke-linejoin:round;"></rect><rect x="49.33" y="398.08" width="109.53" height="45.97" style="fill:none; stroke:#000; stroke-linecap:round; stroke-linejoin:round;"></rect><rect x="389.27" y="419.47" width="13.52" height="3.64" style="fill:none; stroke:#000; stroke-linecap:round; stroke-linejoin:round;"></rect></g></g><g id="freepik--TV--inject-76"><g style="opacity:.3;"><g><rect x="56.62" y="237.04" width="260.38" height="139.7" style="fill:none; stroke:#000; stroke-linecap:round; stroke-linejoin:round;"></rect><rect x="61.33" y="240.96" width="250.96" height="131.85" style="fill:none; stroke:#000; stroke-linecap:round; stroke-linejoin:round;"></rect></g><polygon points="64.73 376.84 62.14 387.79 67.04 387.79 70.49 376.84 64.73 376.84" style="fill:none; stroke:#000; stroke-linecap:round; stroke-linejoin:round;"></polygon><polygon points="309.96 376.84 312.54 387.79 307.64 387.79 304.19 376.84 309.96 376.84" style="fill:none; stroke:#000; stroke-linecap:round; stroke-linejoin:round;"></polygon></g></g><g id="freepik--Character--inject-76"><g><g><g><path d="M362.16,382.25l-20.61,6.23,11.18,31.41,20.61-6.23c2.36-.84,1.77-8.55-1.32-17.23-3.09-8.67-7.5-15.02-9.86-14.18Z" style="fill:#00C07B; stroke:#263238; stroke-linecap:round; stroke-linejoin:round;"></path><path d="M351.42,402.67c3.09,8.67,3.68,16.39,1.32,17.23-2.36,.84-6.78-5.51-9.86-14.18-3.09-8.67-3.68-16.39-1.32-17.23,2.36-.84,6.78,5.51,9.86,14.18Z" style="fill:#263238; stroke:#263238; stroke-linecap:round; stroke-linejoin:round;"></path></g><path d="M278.17,292.86l3.34,18.35s11.68,17.52,17.8,31.7c6.12,14.18,22.25,32.54,25.31,35.04,3.06,2.5,11.96,7.79,14.18,11.4,2.22,3.61,6.95,15.02,6.95,15.02l-22.8,8.9s-4.45-4.73-6.67-11.4c-2.22-6.67-3.61-11.96-3.61-11.96,0,0-21.97-16.41-29.2-21.69-7.23-5.28-9.45-8.06-9.45-8.06,0,0-8.06-37.54-9.45-47s7.23-19.19,13.63-20.3Z" style="fill:#fff; stroke:#263238; stroke-linecap:round; stroke-linejoin:round;"></path><g><path d="M344.72,398.73s4.85,10.71,4.45,12.12c-.4,1.41-4.04,2.42-5.66,2.02-1.62-.4-4.24-11.52-4.24-12.12s3.23-3.84,5.46-2.02Z" style="fill:#fff; stroke:#263238; stroke-linecap:round; stroke-linejoin:round;"></path><path d="M338.05,401.15s4.85,10.71,4.44,12.12c-.4,1.41-4.04,2.42-5.66,2.02-1.62-.4-4.24-11.52-4.24-12.12s3.23-3.84,5.46-2.02Z" style="fill:#fff; stroke:#263238; stroke-linecap:round; stroke-linejoin:round;"></path><path d="M331.78,403.53s4.42,9.77,4.05,11.05c-.37,1.29-3.68,2.21-5.16,1.84-1.47-.37-3.87-10.5-3.87-11.06s2.95-3.5,4.97-1.84Z" style="fill:#fff; stroke:#263238; stroke-linecap:round; stroke-linejoin:round;"></path><path d="M326.47,405.71s4.01,8.86,3.68,10.04c-.33,1.17-3.34,2.01-4.68,1.67s-3.51-9.53-3.51-10.03,2.68-3.18,4.52-1.67Z" style="fill:#fff; stroke:#263238; stroke-linecap:round; stroke-linejoin:round;"></path></g><g><path d="M324.52,383.17s2.22-1.01,5.25-.81c3.03,.2,11.52,2.63,12.73,4.24,1.21,1.62,4.24,12.73,3.03,13.54-1.21,.81-13.74,5.46-15.56,6.06-1.82,.61-2.22-3.03-1.21-4.65,1.01-1.62,3.64-3.03,3.64-3.03,0,0-5.25-.4-7.27-3.64" style="fill:#fff; stroke:#263238; stroke-linecap:round; stroke-linejoin:round;"></path><path d="M340.68,395.7c-3.43-.61-8.28,2.83-8.28,2.83,0,0,3.03-5.46,5.25-6.26" style="fill:none; stroke:#263238; stroke-linecap:round; stroke-linejoin:round;"></path></g><g><path d="M313.75,395.95l-20.61,6.23,11.18,31.41,20.61-6.23c2.36-.84,1.77-8.55-1.32-17.23s-7.5-15.02-9.86-14.18Z" style="fill:#00C07B; stroke:#263238; stroke-linecap:round; stroke-linejoin:round;"></path><path d="M303,416.37c3.09,8.67,3.68,16.39,1.32,17.23-2.36,.84-6.78-5.51-9.86-14.18s-3.68-16.39-1.32-17.23c2.36-.84,6.78,5.51,9.86,14.18Z" style="fill:#263238; stroke:#263238; stroke-linecap:round; stroke-linejoin:round;"></path></g></g><g><path d="M306.05,460.33l-19.26-56.24s-2.22-18.91-3.34-32.81c-1.11-13.9-8.62-29.48-8.62-29.48,0,0-12.79,12.24-37.26,16.96-24.47,4.73-55.89-10.85-62.29-14.46l-6.4-3.61s-23.08,38.37-22.8,68.13c.28,29.75,8.9,51.72,8.9,51.72" style="fill:#263238; stroke:#263238; stroke-linecap:round; stroke-linejoin:round;"></path><g><line x1="230.62" y1="429.11" x2="235.62" y2="460.54" style="fill:none; stroke:#8c8c8c; stroke-linecap:round; stroke-linejoin:round;"></line><line x1="233.4" y1="443.02" x2="250.64" y2="427.44" style="fill:none; stroke:#8c8c8c; stroke-linecap:round; stroke-linejoin:round;"></line></g></g><path d="M270.99,314.92s5.51,14.09,5.51,21.59-3.34,13.07-14.46,19.74c-11.12,6.67-33.93,9.45-53.67,6.4-19.74-3.06-38.37-15.57-39.49-21.97s7.92-23.48,7.92-23.48c0,0,62.82,5.04,94.19-2.28Z" style="fill:#fff; stroke:#263238; stroke-linecap:round; stroke-linejoin:round;"></path><g><path d="M247.38,196.62s17.01-1.02,24.88,14.22,5.08,56.36,5.08,56.36c0,0-26.66-49.25-28.43-56.87-1.78-7.62-1.52-13.71-1.52-13.71Z" style="fill:#fff; stroke:#263238; stroke-linecap:round; stroke-linejoin:round;"></path><path d="M204.73,155.74s-2.79,30.46-5.84,35.8c-3.05,5.33-27.93,13.46-42.4,27.16-14.47,13.71-4.06,52.04-.25,65.5,3.81,13.46,20.56,33,20.56,33,0,0,12.69,7.36,46.71,6.35,34.02-1.02,47.22-6.85,47.47-8.63,.25-1.78-.25-6.09-.25-6.09,0,0,9.65-8.89,11.93-21.07,2.28-12.19-3.39-30.14-11.42-40.87-5.42-7.24-15.23-28.94-18.79-35.8-3.55-6.85-5.08-14.47-5.08-14.47,0,0-8.38-.76-9.65-3.81-1.27-3.05,.51-11.42,.51-11.42,0,0-6.85,3.05-33.51-25.64Z" style="fill:#fff; stroke:#263238; stroke-linecap:round; stroke-linejoin:round;"></path><path d="M217.21,176.73s1.74,5.52,7.55,10.75c5.81,5.23,12.97,5.33,12.97,5.33l.51-11.42-21.03-4.66Z" style="fill:#263238; stroke:#263238; stroke-linecap:round; stroke-linejoin:round;"></path><g><path d="M252.46,211.09c-3.55-6.85-5.08-14.47-5.08-14.47,0,0-3.16-.29-5.89-1.22,.55,3,2.48,11.28,8.94,26.35,8.38,19.55,12.33,22.52,12.87,31.01,.97,15.13-12.31,22.09-30.59,18.03-18.28-4.06-25.44-18.58-28.49-27.72-3.05-9.14-5.59-14.72-9.9-25.89-2.62-6.79-5.98-13.64-7.41-17.77-3.2,1.67-6.8,3.52-10.49,5.56,2.75,3.22,11.46,14.53,18.41,35.83,8.38,25.64-15.23,56.87-24.37,61.18-1.45,.68-2.68,1.34-3.77,1.96,5.14,7.46,10.12,13.27,10.12,13.27,0,0,12.69,7.36,46.71,6.35,34.02-1.02,47.22-6.85,47.47-8.63,.25-1.78-.25-6.09-.25-6.09,0,0,9.65-8.89,11.93-21.07,2.28-12.19-3.81-31.73-11.42-40.87-5.79-6.94-15.23-28.94-18.79-35.8Z" style="fill:#00C07B; stroke:#263238; stroke-linecap:round; stroke-linejoin:round;"></path><path d="M237.24,196.92l.94,6.9s5.02,.63,10.35-1.88" style="fill:none; stroke:#263238; stroke-linecap:round; stroke-linejoin:round;"></path><path d="M197.41,212.29s16.93-3.76,19.44-4.08,5.96,.31,5.96,.31" style="fill:none; stroke:#263238; stroke-linecap:round; stroke-linejoin:round;"></path><g><path d="M218.4,312.86c8.23,.41,27.14,.46,46.62-5.71" style="fill:none; stroke:#263238; stroke-linecap:round; stroke-linejoin:round;"></path><path d="M214.1,312.54s.83,.09,2.35,.2" style="fill:none; stroke:#263238; stroke-linecap:round; stroke-linejoin:round;"></path><path d="M248.32,314.7c-2.78,.42-5.72,.75-8.76,.93" style="fill:none; stroke:#263238; stroke-linecap:round; stroke-linejoin:round;"></path><path d="M270.74,308.83s-7.98,3.3-19.33,5.36" style="fill:none; stroke:#263238; stroke-linecap:round; stroke-linejoin:round;"></path></g></g></g><g><path d="M242.06,82.71s-1.94-9.89-12.41-17.46c-10.47-7.56-29.67-3.88-32.97-1.75-3.3,2.13-5.43,5.24-5.43,5.24l11.06,.97s-15.71,3.49-19.98,11.06c-4.27,7.56-3.1,12.41-3.1,12.41l5.24-3.1s-6.98,9.31-4.46,20.17c2.52,10.86,20.95,22.5,31.03,18.23,10.09-4.27,14.16-29.09,18.62-32.97,4.46-3.88,11.44-4.27,12.22-6.01,.78-1.75,.19-6.79,.19-6.79Z" style="fill:#263238; stroke:#263238; stroke-linecap:round; stroke-linejoin:round;"></path><path d="M262.25,129.91s-4.58,13.77-.98,30.35c3.6,16.59-3.08,23.45-6.49,25.06-3.41,1.61-4.39,.66-4.39,.66,0,0,6.44-2.29,7.96-7.98s1-14.42,1-14.42c0,0-4.23,12.26-6.59,17.33s-5.57,4.84-5.57,4.84c0,0,12.79-15.05,9.69-29.5s5.37-26.34,5.37-26.34Z" style="fill:#263238; stroke:#263238; stroke-linecap:round; stroke-linejoin:round;"></path><g><path d="M201.34,121.3s3.17-28.71,23.08-36.07c19.39-7.18,39.18-.39,47.13,13.77,7.95,14.16,2.33,30.26,.19,37.82s-6.59,12.22-6.59,15.13-.19,9.31-2.72,13.38c-2.52,4.07-16.87,15.9-21.14,18.23s-10.67,4.07-16.29,.39-21.33-17.65-22.69-26.76c-1.36-9.12-1.55-21.92-1.55-21.92l.58-13.96Z" style="fill:#fff; stroke:#263238; stroke-linecap:round; stroke-linejoin:round;"></path><path d="M271.54,99c-7.95-14.16-27.73-20.95-47.13-13.77-19.91,7.37-23.08,36.07-23.08,36.07l-.2,4.7,2.91,.73s5.24-1.75,6.4-5.04,4.08-6.77,7.56-8.73c4.85-2.72,7.51-6.16,8.34-11.25,1.36-8.34,10.47-10.09,21.14-5.62,10.67,4.46,10.66,5.24,18.81,5.24,4.74,0,8.45,5.93,9.35,15.26,.12-5.71-.87-11.81-4.11-17.59Z" style="fill:#263238; stroke:#263238; stroke-linecap:round; stroke-linejoin:round;"></path><path d="M242.84,131.97s-4.65-6.59-15.52-5.24" style="fill:none; stroke:#263238; stroke-linecap:round; stroke-linejoin:round; stroke-width:2px;"></path><path d="M227.32,136.62s2.72,4.65,10.86,3.88" style="fill:none; stroke:#263238; stroke-linecap:round; stroke-linejoin:round;"></path><path d="M252.93,136.82s7.76-1.94,11.25,5.24" style="fill:none; stroke:#263238; stroke-linecap:round; stroke-linejoin:round; stroke-width:2px;"></path><path d="M251.18,144.58s1.94,4.46,10.09,4.46" style="fill:none; stroke:#263238; stroke-linecap:round; stroke-linejoin:round;"></path><path d="M251.37,136.43s-4.65,2.13-4.85,4.27c-.19,2.13,.39,12.8-.19,14.35-.58,1.55-5.43,2.91-8.53-1.36" style="fill:none; stroke:#263238; stroke-linecap:round; stroke-linejoin:round;"></path><path d="M227.32,154.86s4.07,8.53,14.35,9.31" style="fill:none; stroke:#263238; stroke-linecap:round; stroke-linejoin:round;"></path><path d="M227.52,138.95s3.88,2.13,7.95,2.52" style="fill:none; stroke:#263238; stroke-linecap:round; stroke-linejoin:round;"></path><path d="M251.57,146.52s3.1,3.1,7.18,3.1" style="fill:none; stroke:#263238; stroke-linecap:round; stroke-linejoin:round;"></path><path d="M206.31,129.75s-2.83-14.4-8.23-11.31c-5.4,3.09-4.11,15.43-1.29,20.05,2.83,4.63,6.68,2.83,6.68,2.83" style="fill:#fff; stroke:#263238; stroke-linecap:round; stroke-linejoin:round;"></path></g><path d="M207.53,123.75s-1.02,14.47-10.66,28.43c-9.65,13.96-6.09,22.85-3.55,25.64,2.54,2.79,3.81,2.28,3.81,2.28,0,0-5.08-4.57-4.32-10.41,.76-5.84,4.57-13.71,4.57-13.71,0,0-.76,12.95-.51,18.53,.25,5.59,3.3,6.6,3.3,6.6,0,0-6.09-18.79,2.28-30.97,8.38-12.19,5.08-26.4,5.08-26.4Z" style="fill:#263238; stroke:#263238; stroke-linecap:round; stroke-linejoin:round;"></path></g><g><path d="M247.91,245.07l-21.33-2.94-2.95,33.21,21.33,2.94c2.5,.22,5.18-7.03,5.99-16.2,.82-9.17-.55-16.79-3.04-17.01Z" style="fill:#00C07B; stroke:#263238; stroke-linecap:round; stroke-linejoin:round;"></path><path d="M229.62,259.14c-.82,9.17-3.5,16.43-5.99,16.2s-3.86-7.84-3.04-17.01c.82-9.17,3.5-16.43,5.99-16.2,2.5,.22,3.86,7.84,3.04,17.01Z" style="fill:#263238; stroke:#263238; stroke-linecap:round; stroke-linejoin:round;"></path></g><g><path d="M166.95,211.88s-19.18,7.26-26.15,24.4c-6.97,17.14-4.36,43,4.65,66.82,9.01,23.82,19.76,47.07,28.76,49.39,9.01,2.32,19.18-25.28,23.82-34.28s16.56-32.54,17.14-35.44,9.01-12.2,11.91-15.11,2.32-8.13,2.03-9.88c-.29-1.74-3.49-13.95-4.36-15.11-.87-1.16-2.32-.58-3.49-1.16-1.16-.58-11.91-3.49-11.91-3.49,0,0-4.94-2.61-7.26-1.45-2.32,1.16-2.91,2.91-2.91,2.91,0,0,.58,7.55-1.45,13.07-2.03,5.52-6.68,12.2-5.81,13.36,.87,1.16,6.39,9.01,6.39,9.01,0,0-5.52,11.04-12.49,19.47l-4.94-18.88" style="fill:#fff; stroke:#263238; stroke-linecap:round; stroke-linejoin:round;"></path><path d="M215.18,282.77c.08-.41,.33-.95,.69-1.58l-.15-.53c-10.54-.25-17.39-5.74-17.39-5.74,0,0-5.52,11.04-12.49,19.47h0l-3.95,6.13c6.5,9.24,14.67,11.55,19.02,12.11,5.46-10.73,13.79-27.44,14.28-29.85Z" style="fill:#a1a1a1; stroke:#263238; stroke-linecap:round; stroke-linejoin:round;"></path><path d="M181.89,300.52s-21.33,15.45-22.31,24.27" style="fill:none; stroke:#263238; stroke-linecap:round; stroke-linejoin:round;"></path><g><path d="M221.28,241.52s2.91,11.33,2.91,16.56" style="fill:none; stroke:#263238; stroke-linecap:round; stroke-linejoin:round;"></path><path d="M216.05,240.65s1.45,10.17,2.03,14.82" style="fill:none; stroke:#263238; stroke-linecap:round; stroke-linejoin:round;"></path><path d="M209.37,238.03s1.74,12.49,1.74,15.69" style="fill:none; stroke:#263238; stroke-linecap:round; stroke-linejoin:round;"></path><path d="M210.72,257.26s-1.06,.89-1.95,1.95" style="fill:none; stroke:#263238; stroke-linecap:round; stroke-linejoin:round;"></path><path d="M217.27,258.86s-1.06,.89-1.95,1.95" style="fill:none; stroke:#263238; stroke-linecap:round; stroke-linejoin:round;"></path><path d="M223.82,260.45s-1.06,.89-1.95,1.95" style="fill:none; stroke:#263238; stroke-linecap:round; stroke-linejoin:round;"></path></g></g><g><path d="M197.22,236.85l-21.33-2.94-2.95,33.21,21.33,2.94c2.5,.22,5.18-7.03,5.99-16.2,.82-9.17-.55-16.79-3.04-17.01Z" style="fill:#00C07B; stroke:#263238; stroke-linecap:round; stroke-linejoin:round;"></path><path d="M178.93,250.91c-.82,9.17-3.5,16.43-5.99,16.2s-3.86-7.84-3.04-17.01c.82-9.17,3.5-16.43,5.99-16.2,2.49,.22,3.86,7.84,3.04,17.01Z" style="fill:#263238; stroke:#263238; stroke-linecap:round; stroke-linejoin:round;"></path></g></g></g><g id="freepik--Table--inject-76"><g><line x1="469.65" y1="460.54" x2="44.46" y2="460.54" style="fill:none; stroke:#263238; stroke-linecap:round; stroke-linejoin:round;"></line><line x1="29.65" y1="460.54" x2="38.11" y2="460.54" style="fill:none; stroke:#263238; stroke-linecap:round; stroke-linejoin:round;"></line></g></g></svg>
