<!-- Uploaded to: SVG Repo, www.svgrepo.com, Transformed by: SVG Repo Mixer Tools -->
<svg width="800px" height="800px" viewBox="0 0 1024 1024" class="icon" version="1.1" xmlns="http://www.w3.org/2000/svg" fill="#000000" stroke="#000000">

<g id="SVGRepo_bgCarrier" stroke-width="0"/>

<g id="SVGRepo_tracerCarrier" stroke-linecap="round" stroke-linejoin="round"/>

<g id="SVGRepo_iconCarrier">

<path d="M195.66 228.19V228h78.87v0.56q5.59-0.56 11.27-0.56c99.57 0 180.29 131.11 180.29 292.83s-80.72 292.86-180.28 292.86q-5.68 0-11.27-0.56v0.56h-78.88v-0.17C108 808.2 37.91 679.21 37.91 520.86S108 233.51 195.66 228.19zM744 811.9a99.67 99.67 0 0 1-18.78 1.79c-75.2 0-138.93-85.09-160.87-202.73l-2-168.94c19.87-123.43 85.24-214 162.82-214a99.67 99.67 0 0 1 18.83 1.79V228h75.12c92.54 13.4 165.26 139.32 165.26 292.83s-72.69 279.46-165.23 291.86l-75.12 1z" fill="#FFFFFF"/>

<path d="M786.16 813.13c85.48-9.44 153.18-136.69 153.18-292.27C939.34 359.13 866.19 228 776 228a95 95 0 0 0-32 5.61V228h75.12c92.54 13.4 165.26 139.32 165.26 292.83s-72.69 279.46-165.23 291.86z m-17.95 0.24l-24.19 0.32v-5.59a96 96 0 0 0 24.2 5.27z" fill="#4400ff"/>

<path d="M804.14 261.81c53.6 49.1 90.13 146.68 90.13 259 0 161.73-75.67 292.83-169 292.83-38.61-35.36-68.35-95.88-82-168.94l-2-168.94c19.87-123.43 85.24-214 162.82-214z" fill="#f1f0ff"/>

<path d="M459.48 442h203.8a84.47 84.47 0 1 1 0 168.94H457.4" fill="#f1f0ff"/>

<path d="M534.41 442c17 52.1 28 109 31.71 168.94H457.4L459.48 442h74.92z" fill="#f1f0ff"/>

<path d="M274.54 228v0.56q5.59-0.56 11.27-0.56c99.57 0 180.29 131.11 180.29 292.83s-80.73 292.86-180.29 292.86q-5.68 0-11.27-0.56v0.56h-78.88v-0.17q2.81 0.17 5.63 0.17v-11.28a98 98 0 0 0 45.07 11.28c90.23 0 163.38-131.11 163.38-292.83S336.6 228 246.37 228a98 98 0 0 0-45.07 11.28V228" fill="#4400ff"/>

<path d="M264.39 250.66c58.91 44.24 100.29 148.56 100.29 270.2 0 159-70.72 288.44-158.87 292.73C146.9 769.34 105.52 665 105.52 543.38c0-159.02 70.72-288.44 158.87-292.72z" fill="#f1f0ff"/>

<path d="M150.59 532.12a45.07 90.1 0 1 0 90.14 0 45.07 90.1 0 1 0-90.14 0Z" fill="#1a0077"/>

<path d="M723.55 834.45V811.9H744l-0.25-18.69 73.83-1c38-5.58 73.88-34.89 101.1-82.68 29.18-51.21 45.24-118.23 45.24-188.7S947.86 383.37 918.68 332c-27.18-47.83-63-77.43-101.08-83.52H744v-18.67h-20.45v-22.27h97.08l1.46 0.21c104.22 15.09 182.81 149.7 182.81 313.1 0 77.46-18 151.68-50.61 209-34 59.63-81 96.27-132.41 103.16l-1.22 0.16z" fill=""/>

<path d="M725.25 834.17c-43 0-83.3-22.52-116.55-65.13-30.66-39.29-52.95-92.66-64.45-154.33l40.27-7.51c10.15 54.46 30.21 103 56.47 136.64 17.57 22.52 46.46 49.37 84.26 49.37 37.52 0 73.67-26.82 101.78-75.53 30.15-52.25 46.76-122.15 46.76-196.83S857.18 376.27 827 324c-28.11-48.71-64.26-75.53-101.78-75.53-39.11 0-68.71 28.56-86.66 52.51-26.87 35.86-46.74 87.1-55.94 144.26l-40.44-6.51c10.38-64.51 32.38-120.64 63.6-162.31 16.06-21.43 34.07-38.22 53.52-49.91 21-12.61 43.17-19 65.92-19 52.77 0 101.52 34.1 137.25 96 33.69 58.37 52.25 135.55 52.25 217.3s-18.56 158.93-52.25 217.3c-35.7 61.96-84.47 96.06-137.22 96.06z" fill=""/>

<path d="M663.28 633.49H457.4v-45.06h205.88a61.94 61.94 0 1 0 0-123.89h-203.8v-45.05h203.8a107 107 0 1 1 0 214z" fill=""/>

<path d="M295 834.23l-89.56-0.23h-4.14v0.18c-2.28 0-4.59-0.07-6.87-0.21l1.2-40.92h9.84l48.6 0.13v-2.68l22.52 2.25c3.05 0.31 6.16 0.46 9.23 0.46 40.78 0 79.86-27 110-76 32.09-52.12 49.76-121.85 49.76-196.33s-17.67-144.2-49.76-196.33c-30.18-49-69.26-76-110-76-3.07 0-6.17 0.16-9.22 0.46l-22.52 2.26v-2.77h-58.42v-41H295v0.31c25.26 1.72 49.63 10.55 72.56 26.3 23.84 16.38 45.08 39.56 63.15 68.9 36 58.49 55.84 135.84 55.84 217.8s-19.83 159.31-55.84 217.8c-18.06 29.34-39.31 52.52-63.15 68.9-22.93 15.75-47.3 24.58-72.56 26.3z" fill=""/>

<path d="M201.3 834.17c-51.4 0-98.78-34.19-133.41-96.27-32.53-58.31-50.45-135.39-50.45-217s17.92-158.73 50.45-217c34.64-62.08 82-96.27 133.41-96.27s98.78 34.19 133.41 96.27c32.53 58.31 50.45 135.39 50.45 217s-17.92 158.74-50.45 217c-34.64 62.1-82.02 96.27-133.41 96.27z m0-585.67c-35.89 0-70.56 26.73-97.65 75.27-29.19 52.31-45.26 122.3-45.26 197.09s16.07 144.78 45.26 197.09c27.08 48.54 61.76 75.27 97.65 75.27s70.56-26.73 97.65-75.27c29.19-52.31 45.26-122.3 45.26-197.09s-16.07-144.78-45.26-197.09c-27.09-48.54-61.77-75.27-97.65-75.27z" fill=""/>

<path d="M195.66 642.7c-20.2 0-38-13.39-50.19-37.71-9.91-19.81-15.37-45.69-15.37-72.87s5.46-53.07 15.37-72.87c12.16-24.32 30-37.71 50.19-37.71s38 13.39 50.19 37.71c9.91 19.81 15.37 45.69 15.37 72.87s-5.46 53.07-15.37 72.88c-12.16 24.31-29.99 37.7-50.19 37.7z m0-180.21c-2.33 0-8.06 4.09-13.55 15.07-7 14-11 33.91-11 54.55s4 40.53 11 54.55c5.49 11 11.23 15.07 13.55 15.07s8.06-4.09 13.55-15.07c7-14 11-33.91 11-54.55s-4-40.53-11-54.55c-5.49-10.97-11.21-15.06-13.55-15.06z" fill=""/>

</g>

</svg>